<svg width="40" height="32" viewBox="0 0 40 32" fill="none" xmlns="http://www.w3.org/2000/svg">
<path fill-rule="evenodd" clip-rule="evenodd" d="M12.2841 10.3662H10.4473V15.9652H12.225C14.4172 15.9652 15.5131 15.0171 15.5131 13.1201C15.5131 11.2846 14.4365 10.3662 12.2841 10.3662Z" fill="#218EE1"></path>
<path fill-rule="evenodd" clip-rule="evenodd" d="M34.3814 10.1532L27.4195 26.0676H21.8797L29.1678 10.153H21.4947V5.77076H34.3814V10.1532ZM15.0395 26.0673L10.4475 19.4943V26.0673H5.61865V5.77075H11.8696C13.5479 5.77075 14.8172 5.87293 15.6763 6.07585C16.5355 6.27852 17.2911 6.66406 17.9428 7.23222C19.5621 8.6118 20.3718 10.4677 20.3718 12.8003C20.3718 14.484 19.9275 15.8996 19.039 17.0446C18.1502 18.1916 16.9548 18.8969 15.4541 19.1598L20.8165 26.0673H15.0395ZM29.3499 0H10.6501C4.81494 0 0.0747888 4.82092 0 10.796L0.000235185 36C1.95086 33.4662 4.61103 31.8383 7.99981 31.8383L29.3499 31.8386C35.2319 31.8386 40 26.9408 40 20.8995V10.939C40 4.8975 35.2319 0 29.3499 0Z" fill="#218EE1"></path>
</svg>
