<svg xmlns="http://www.w3.org/2000/svg" width="798.522" height="212.355" viewBox="0 0 798.522 212.355">
  <g id="Grupo_3" data-name="Grupo 3" transform="translate(-2065.981 -177.287)">
    <g id="Grupo_1" data-name="Grupo 1">
      <path id="Caminho_1" data-name="Caminho 1" d="M2298,299.711V327.9a7.713,7.713,0,0,1-15.426,0V252.769a7.718,7.718,0,0,1,7.713-7.713h25.4c15.559,0,27.926,8.644,27.926,27.261,0,18.351-12.1,27.394-27.926,27.394Zm0-40.825v27h16.49c8.244,0,13.164-4.92,13.164-13.564,0-8.777-5.053-13.431-13.164-13.431Z" fill="#fff"></path>
      <path id="Caminho_2" data-name="Caminho 2" d="M2405.577,320.19a7.134,7.134,0,0,1,7.447,7.181,7.058,7.058,0,0,1-7.447,7.181h-39.362a7.3,7.3,0,0,1-7.58-7.447v-75.4a7.713,7.713,0,0,1,15.426,0V320.19Z" fill="#fff"></path>
      <path id="Caminho_3" data-name="Caminho 3" d="M2444.011,311.28l-8.112,19.282a7.84,7.84,0,0,1-7.181,5.054,7.663,7.663,0,0,1-7.58-7.58,7.39,7.39,0,0,1,.532-2.793l31.384-76.464a7.581,7.581,0,0,1,14.095,0l31.384,76.464a7.39,7.39,0,0,1,.532,2.793,7.664,7.664,0,0,1-7.58,7.58,7.839,7.839,0,0,1-7.181-5.054l-8.112-19.282Zm16.09-42.022-10.9,27.926h21.809Z" fill="#fff"></path>
      <path id="Caminho_4" data-name="Caminho 4" d="M2529.12,279.1l20.081-31.517a7.711,7.711,0,0,1,14.229,4.123,7.156,7.156,0,0,1-1.2,4.122l-25.4,37.9V327.9a7.713,7.713,0,1,1-15.425,0V293.727l-25.4-37.9a7.156,7.156,0,0,1-1.2-4.122,7.718,7.718,0,0,1,7.712-7.713,7.531,7.531,0,0,1,6.517,3.59Z" fill="#fff"></path>
      <path id="Caminho_5" data-name="Caminho 5" d="M2588.3,331.094a4.522,4.522,0,1,1-9.043,0V249.577a4.485,4.485,0,0,1,4.522-4.521h26.463c14.228,0,25.4,8.245,25.4,25.931,0,17.421-10.905,26.064-25.4,26.064H2588.3Zm0-42.288h20.612c10.771,0,17.553-6.25,17.553-17.819,0-11.7-6.915-17.686-17.553-17.686H2588.3Z" fill="#fff"></path>
      <path id="Caminho_6" data-name="Caminho 6" d="M2699.737,326.041a4.256,4.256,0,0,1,0,8.511h-40.958a4.484,4.484,0,0,1-4.521-4.522V248.513a4.521,4.521,0,0,1,9.042,0v77.528Z" fill="#fff"></path>
      <path id="Caminho_7" data-name="Caminho 7" d="M2721.147,307.291V248.513a4.522,4.522,0,0,1,9.044,0v58.778c0,10.505,3.856,20.612,22.207,20.612,18.218,0,22.075-10.107,22.075-20.612V248.513a4.521,4.521,0,0,1,9.042,0v58.778c0,14.628-5.984,29.122-31.117,29.122S2721.147,321.919,2721.147,307.291Z" fill="#fff"></path>
      <path id="Caminho_8" data-name="Caminho 8" d="M2833.518,251.439c-13.962,0-19.282,6.915-19.282,14.495,0,22.075,50.267,12.633,50.267,44.681,0,16.623-11.437,25.8-31.915,25.8-15.16,0-26.464-7.713-30.985-16.356a4.68,4.68,0,0,1-.665-2.394,4.2,4.2,0,0,1,4.256-4.255,4.246,4.246,0,0,1,3.723,2.127c4.256,6.916,11.968,12.634,23.671,12.634,14.627,0,22.872-5.852,22.872-17.554,0-24.867-50.266-13.165-50.266-44.681,0-12.234,8.909-22.74,28.324-22.74,12.634,0,22.873,5.319,28.458,13.7a4.379,4.379,0,0,1,.8,2.527,4.277,4.277,0,0,1-7.712,2.526C2851.072,257.024,2844.689,251.439,2833.518,251.439Z" fill="#fff"></path>
    </g>
    <g id="Grupo_2" data-name="Grupo 2">
      <path id="Caminho_9" data-name="Caminho 9" d="M2163.681,362.006a5.228,5.228,0,0,1-3.843-1.521c-1.394-1.4-2.124-3.633-2.121-6.468l.179-77.149c.012-4.915,2.3-7.968,5.967-7.968a10.479,10.479,0,0,1,5.126,1.6l66.724,38.729c3.033,1.759,4.7,4.038,4.692,6.408s-1.683,4.642-4.724,6.384l-66.9,38.42A10.5,10.5,0,0,1,2163.681,362.006Z" fill="#fff"></path>
      <path id="Caminho_10" data-name="Caminho 10" d="M2076.066,389.642a9.016,9.016,0,0,1-6.543-2.6c-2.327-2.335-3.553-6.031-3.542-10.688l.286-121.842c.02-8.171,3.887-13.245,10.093-13.245a17.261,17.261,0,0,1,8.428,2.6L2096.9,250.9l-.179,77.546c-.024,7.945,2.8,13.963,7.94,16.949a14.353,14.353,0,0,0,7.3,1.9,23.005,23.005,0,0,0,11.358-3.407L2153.95,326.3l-.052,20.9-69.443,39.873a17.292,17.292,0,0,1-8.389,2.568Z" fill="#fff"></path>
      <path id="Caminho_11" data-name="Caminho 11" d="M2111.961,343.457a10.207,10.207,0,0,1-7.405-2.942c-2.632-2.637-4.014-6.805-4-12.054l.318-136.23c.024-9.219,4.4-14.944,11.422-14.944a19.414,19.414,0,0,1,9.493,2.934L2239.6,248.612c5.638,3.271,8.739,7.563,8.727,12.081s-3.129,8.79-8.782,12.034l-29.694,17.056-38.936-22.6a14.139,14.139,0,0,0-7.055-2.12,9.281,9.281,0,0,0-4.673,1.214c-3.291,1.89-5.113,5.646-5.125,10.581l-.107,45.022-32.548,18.688A19.186,19.186,0,0,1,2111.961,343.457Z" fill="#fff"></path>
    </g>
  </g>
</svg>
