<svg width="100" height="23" xmlns="http://www.w3.org/2000/svg" x="0px" y="0px" viewBox="0 0 1556.9 361.4" class="icon-transition-all icon-rounded-sm icon-border-hairline icon-border-transparent hover:icon-grayscale-[.2] active:icon-grayscale-[.4]"><title>Logo r7 tempo</title><g><g><g><path fill="#1172BA" d="M126.6,104.1h-19v56.2h18.4c22.5,0,33.9-9.6,33.9-28.5C159.9,113.2,148.9,104.1,126.6,104.1z"></path></g><g><path fill="#1172BA" d="M302.6,0H109.8C49.6,0,0.7,48.3,0,108.4v253c20.1-25.4,47.5-41.8,82.4-41.8h220 c60.6,0,109.8-49.2,109.8-109.8v-100C412.4,49.2,363.2,0,302.6,0z M155,261.7l-47.3-66v66H57.9V57.9h64.5c17.3,0,30.4,1,39.2,3 c8.8,2,16.7,5.8,23.4,11.6c16.7,13.8,25.1,32.5,25.1,55.9c0,17-4.6,31.1-13.7,42.6c-9.1,11.6-21.5,18.5-36.9,21.2l55.3,69.3H155 V261.7z M354.4,102l-71.7,159.7h-57L300.8,102h-79.1V57.9h132.9V102H354.4z"></path></g></g><g><path fill="#1172BA" d="M550.2,97.6h-63.1V55.5h171.9v42.1h-63.1v165.3h-45.6V97.6z"></path><path fill="#1172BA" d="M693.9,55.5h156.5v40.6H739.2v42.1H837v40.6h-97.8v43.6h112.6v40.6H693.9V55.5z"></path><path fill="#1172BA" d="M892.4,55.5h49.2l54.5,87.7l54.5-87.7h49.2v207.4h-45.3V127.5l-58.4,88.6h-1.2l-57.8-87.7v134.5h-44.7 V55.5z"></path><path fill="#1172BA" d="M1149.6,55.5h84.7c49.5,0,79.4,29.3,79.4,71.7v0.6c0,48-37.3,72.9-83.9,72.9h-34.7v62.2h-45.6V55.5z M1231.4,160.1c22.8,0,36.1-13.6,36.1-31.4v-0.6c0-20.4-14.2-31.4-37-31.4h-35.3v63.4H1231.4z"></path></g><path fill="#1172BA" d="M1445.3,47.6c-61.6,0-111.6,50-111.6,111.6s50,111.6,111.6,111.6c61.6,0,111.6-50,111.6-111.6 S1506.9,47.6,1445.3,47.6z M1445.3,233.3c-29.8,0-53.9-24.9-53.9-55.6c0-26.4,36.5-75.9,46.8-89.2c1.7-2.2,4.2-3.4,6.9-3.4h0.5 c2.7,0,5.2,1.2,6.9,3.4c10.2,13.3,46.8,62.8,46.8,89.2C1499.2,208.4,1475,233.3,1445.3,233.3z"></path></g></svg>